# Blender 3.5.0
# www.blender.org
mtllib Board/pregame_Board.mtl
o Cube
v 5.000000 0.150000 -3.000000
v 5.000000 -0.150000 -3.000000
v 5.000000 0.150000 3.000000
v 5.000000 -0.150000 3.000000
v -5.000000 0.150000 -3.000000
v -5.000000 -0.150000 -3.000000
v -5.000000 0.150000 3.000000
v -5.000000 -0.150000 3.000000
vn -0.0000 1.0000 -0.0000
vn -0.0000 -0.0000 1.0000
vn -1.0000 -0.0000 -0.0000
vn -0.0000 -1.0000 -0.0000
vn 1.0000 -0.0000 -0.0000
vn -0.0000 -0.0000 -1.0000
vt 1.000000 1.000000
vt 1.000000 0.000000
vt 1.000000 -0.000000
vt 1.000000 -0.000000
vt 1.000000 -0.000000
vt 1.000000 0.000000
vt 1.000000 0.599788
vt 1.000000 0.000000
vt 1.000000 1.000000
vt 0.980004 0.599788
vt 0.000000 1.000000
vt 0.980004 -0.000000
vt 0.980004 0.999647
vt 1.000000 -0.000000
vt 0.000000 0.000000
vt 1.000000 0.999647
vt 0.000000 0.000000
vt 1.000000 0.999647
vt 0.980004 0.599788
vt 0.980004 0.999647
vt 1.000000 0.599788
vt 0.000000 1.000000
s 0
usemtl Material
f 1/1/1 5/11/1 7/17/1 3/6/1
f 4/8/2 3/6/2 7/18/2 8/20/2
f 8/21/3 7/19/3 5/12/3 6/14/3
f 6/15/4 2/5/4 4/9/4 8/22/4
f 2/4/5 1/2/5 3/7/5 4/10/5
f 6/16/6 5/13/6 1/3/6 2/5/6
