# Blender 3.5.0
# www.blender.org
mtllib growPowerUp.mtl
o Cylinder
v 0.000000 -0.200000 -1.000000
v 0.000000 0.200000 -1.000000
v 0.195090 -0.200000 -0.980785
v 0.195090 0.200000 -0.980785
v 0.382683 -0.200000 -0.923880
v 0.382683 0.200000 -0.923880
v 0.555570 -0.200000 -0.831470
v 0.555570 0.200000 -0.831470
v 0.707107 -0.200000 -0.707107
v 0.707107 0.200000 -0.707107
v 0.831470 -0.200000 -0.555570
v 0.831470 0.200000 -0.555570
v 0.923880 -0.200000 -0.382683
v 0.923880 0.200000 -0.382683
v 0.980785 -0.200000 -0.195090
v 0.980785 0.200000 -0.195090
v 1.000000 -0.200000 0.000000
v 1.000000 0.200000 0.000000
v 0.980785 -0.200000 0.195090
v 0.980785 0.200000 0.195090
v 0.923880 -0.200000 0.382683
v 0.923880 0.200000 0.382683
v 0.831470 -0.200000 0.555570
v 0.831470 0.200000 0.555570
v 0.707107 -0.200000 0.707107
v 0.707107 0.200000 0.707107
v 0.555570 -0.200000 0.831470
v 0.555570 0.200000 0.831470
v 0.382683 -0.200000 0.923880
v 0.382683 0.200000 0.923880
v 0.195090 -0.200000 0.980785
v 0.195090 0.200000 0.980785
v 0.000000 -0.200000 1.000000
v 0.000000 0.200000 1.000000
v -0.195090 -0.200000 0.980785
v -0.195090 0.200000 0.980785
v -0.382683 -0.200000 0.923880
v -0.382683 0.200000 0.923880
v -0.555570 -0.200000 0.831470
v -0.555570 0.200000 0.831470
v -0.707107 -0.200000 0.707107
v -0.707107 0.200000 0.707107
v -0.831470 -0.200000 0.555570
v -0.831470 0.200000 0.555570
v -0.923880 -0.200000 0.382683
v -0.923880 0.200000 0.382683
v -0.980785 -0.200000 0.195090
v -0.980785 0.200000 0.195090
v -1.000000 -0.200000 0.000000
v -1.000000 0.200000 0.000000
v -0.980785 -0.200000 -0.195090
v -0.980785 0.200000 -0.195090
v -0.923880 -0.200000 -0.382683
v -0.923880 0.200000 -0.382683
v -0.831470 -0.200000 -0.555570
v -0.831470 0.200000 -0.555570
v -0.707107 -0.200000 -0.707107
v -0.707107 0.200000 -0.707107
v -0.555570 -0.200000 -0.831470
v -0.555570 0.200000 -0.831470
v -0.382683 -0.200000 -0.923880
v -0.382683 0.200000 -0.923880
v -0.195090 -0.200000 -0.980785
v -0.195090 0.200000 -0.980785
vn 0.0980 -0.0000 -0.9952
vn 0.2903 -0.0000 -0.9569
vn 0.4714 -0.0000 -0.8819
vn 0.6344 -0.0000 -0.7730
vn 0.7730 -0.0000 -0.6344
vn 0.8819 -0.0000 -0.4714
vn 0.9569 -0.0000 -0.2903
vn 0.9952 -0.0000 -0.0980
vn 0.9952 -0.0000 0.0980
vn 0.9569 -0.0000 0.2903
vn 0.8819 -0.0000 0.4714
vn 0.7730 -0.0000 0.6344
vn 0.6344 -0.0000 0.7730
vn 0.4714 -0.0000 0.8819
vn 0.2903 -0.0000 0.9569
vn 0.0980 -0.0000 0.9952
vn -0.0980 -0.0000 0.9952
vn -0.2903 -0.0000 0.9569
vn -0.4714 -0.0000 0.8819
vn -0.6344 -0.0000 0.7730
vn -0.7730 -0.0000 0.6344
vn -0.8819 -0.0000 0.4714
vn -0.9569 -0.0000 0.2903
vn -0.9952 -0.0000 0.0980
vn -0.9952 -0.0000 -0.0980
vn -0.9569 -0.0000 -0.2903
vn -0.8819 -0.0000 -0.4714
vn -0.7730 -0.0000 -0.6344
vn -0.6344 -0.0000 -0.7730
vn -0.4714 -0.0000 -0.8819
vn -0.0000 1.0000 -0.0000
vn -0.2903 -0.0000 -0.9569
vn -0.0980 -0.0000 -0.9952
vn -0.0000 -1.0000 -0.0000
vt 0.999850 0.870515
vt 0.916431 0.870365
vt 0.123552 0.450754
vt 0.916281 0.870515
vt 0.166396 0.263161
vt 1.000000 0.870365
vt 0.999850 0.816117
vt 0.138019 0.354155
vt 0.916281 0.816117
vt 0.138019 0.354155
vt 0.999850 0.761719
vt 0.166396 0.263161
vt 0.916281 0.761719
vt 0.123552 0.450754
vt 0.999850 0.707321
vt 0.207594 0.181269
vt 0.916281 0.707321
vt 0.123552 0.549246
vt 0.999850 0.652924
vt 0.260029 0.111625
vt 0.916281 0.652924
vt 0.138019 0.645845
vt 0.999850 0.598526
vt 0.321685 0.056906
vt 0.916281 0.598526
vt 0.166396 0.736839
vt 0.999850 0.544128
vt 0.390194 0.019215
vt 0.916281 0.544128
vt 0.207594 0.818731
vt 0.999850 0.489730
vt 0.462923 0.000000
vt 0.916281 0.489730
vt 0.260029 0.888375
vt 0.999850 0.435332
vt 0.537077 0.000000
vt 0.916281 0.435332
vt 0.321685 0.943094
vt 0.999850 0.380934
vt 0.609806 0.019215
vt 0.916281 0.380935
vt 0.390194 0.980785
vt 0.999850 0.326537
vt 0.678315 0.056906
vt 0.916281 0.326537
vt 0.462923 1.000000
vt 0.999850 0.272139
vt 0.739972 0.111625
vt 0.916281 0.272139
vt 0.537077 1.000000
vt 0.999850 0.217741
vt 0.792406 0.181269
vt 0.916281 0.217741
vt 0.609806 0.980785
vt 0.999850 0.163343
vt 0.833604 0.263161
vt 0.916281 0.163343
vt 0.678315 0.943094
vt 0.999850 0.108945
vt 0.861981 0.354155
vt 0.916281 0.108945
vt 0.739971 0.888375
vt 0.999850 0.054548
vt 0.876448 0.450754
vt 0.916281 0.054548
vt 0.792406 0.818731
vt 0.999850 0.000150
vt 0.916431 0.000000
vt 0.876448 0.549246
vt 0.916281 0.000150
vt 1.000000 0.000000
vt 0.833604 0.736839
vt 0.916431 0.054398
vt 0.861981 0.645845
vt 1.000000 0.054398
vt 0.861981 0.645845
vt 0.916431 0.108796
vt 0.833604 0.736839
vt 1.000000 0.108796
vt 0.876448 0.549246
vt 0.916431 0.163193
vt 0.792406 0.818731
vt 1.000000 0.163193
vt 0.876448 0.450754
vt 0.916431 0.217591
vt 0.739972 0.888375
vt 1.000000 0.217591
vt 0.861981 0.354155
vt 0.916431 0.271989
vt 0.678315 0.943094
vt 1.000000 0.271989
vt 0.833604 0.263161
vt 0.916431 0.326387
vt 0.609806 0.980785
vt 1.000000 0.326387
vt 0.792406 0.181269
vt 0.916431 0.380785
vt 0.537077 1.000000
vt 1.000000 0.380785
vt 0.739972 0.111625
vt 0.916431 0.435182
vt 0.462923 1.000000
vt 1.000000 0.435182
vt 0.678315 0.056906
vt 0.916431 0.489580
vt 0.390194 0.980785
vt 1.000000 0.489580
vt 0.609806 0.019215
vt 0.916431 0.543978
vt 0.321685 0.943094
vt 1.000000 0.543978
vt 0.537077 0.000000
vt 0.916431 0.598376
vt 0.260029 0.888375
vt 1.000000 0.598376
vt 0.462923 0.000000
vt 0.916431 0.652774
vt 0.207594 0.818731
vt 1.000000 0.652774
vt 0.390194 0.019215
vt 0.916431 0.707172
vt 0.166396 0.736839
vt 1.000000 0.707171
vt 0.321685 0.056906
vt 0.916431 0.761569
vt 0.138019 0.645845
vt 0.260029 0.111625
vt 1.000000 0.761569
vt 0.916431 0.815967
vt 0.123552 0.549246
vt 0.207594 0.181269
vt 1.000000 0.815967
s 0
usemtl Material.001
f 1/1/1 2/4/1 4/9/1 3/7/1
f 3/7/2 4/9/2 6/13/2 5/11/2
f 5/11/3 6/13/3 8/17/3 7/15/3
f 7/15/4 8/17/4 10/21/4 9/19/4
f 9/19/5 10/21/5 12/25/5 11/23/5
f 11/23/6 12/25/6 14/29/6 13/27/6
f 13/27/7 14/29/7 16/33/7 15/31/7
f 15/31/8 16/33/8 18/37/8 17/35/8
f 17/35/9 18/37/9 20/41/9 19/39/9
f 19/39/10 20/41/10 22/45/10 21/43/10
f 21/43/11 22/45/11 24/49/11 23/47/11
f 23/47/12 24/49/12 26/53/12 25/51/12
f 25/51/13 26/53/13 28/57/13 27/55/13
f 27/55/14 28/57/14 30/61/14 29/59/14
f 29/59/15 30/61/15 32/65/15 31/63/15
f 31/63/16 32/65/16 34/70/16 33/67/16
f 33/68/17 34/71/17 36/75/17 35/73/17
f 35/73/18 36/75/18 38/79/18 37/77/18
f 37/77/19 38/79/19 40/83/19 39/81/19
f 39/81/20 40/83/20 42/87/20 41/85/20
f 41/85/21 42/87/21 44/91/21 43/89/21
f 43/89/22 44/91/22 46/95/22 45/93/22
f 45/93/23 46/95/23 48/99/23 47/97/23
f 47/97/24 48/99/24 50/103/24 49/101/24
f 49/101/25 50/103/25 52/107/25 51/105/25
f 51/105/26 52/107/26 54/111/26 53/109/26
f 53/109/27 54/111/27 56/115/27 55/113/27
f 55/113/28 56/115/28 58/119/28 57/117/28
f 57/117/29 58/119/29 60/123/29 59/121/29
f 59/121/30 60/123/30 62/128/30 61/125/30
f 4/10/31 2/5/31 64/131/31 62/127/31 60/124/31 58/120/31 56/116/31 54/112/31 52/108/31 50/104/31 48/100/31 46/96/31 44/92/31 42/88/31 40/84/31 38/80/31 36/76/31 34/72/31 32/66/31 30/62/31 28/58/31 26/54/31 24/50/31 22/46/31 20/42/31 18/38/31 16/34/31 14/30/31 12/26/31 10/22/31 8/18/31 6/14/31
f 61/125/32 62/128/32 64/132/32 63/129/32
f 63/129/33 64/132/33 2/6/33 1/2/33
f 1/3/34 3/8/34 5/12/34 7/16/34 9/20/34 11/24/34 13/28/34 15/32/34 17/36/34 19/40/34 21/44/34 23/48/34 25/52/34 27/56/34 29/60/34 31/64/34 33/69/34 35/74/34 37/78/34 39/82/34 41/86/34 43/90/34 45/94/34 47/98/34 49/102/34 51/106/34 53/110/34 55/114/34 57/118/34 59/122/34 61/126/34 63/130/34
